<?xml version="1.0" encoding="utf-8"?>
<!-- Generator: Adobe Illustrator 23.0.2, SVG Export Plug-In . SVG Version: 6.00 Build 0)  -->
<svg version="1.1" id="Layer_1" xmlns="http://www.w3.org/2000/svg" xmlns:xlink="http://www.w3.org/1999/xlink" x="0px" y="0px"
	 viewBox="0 0 120 120" style="enable-background:new 0 0 120 120;" xml:space="preserve">
<style type="text/css">
	.st0{fill:none;stroke:#000000;stroke-width:6;stroke-miterlimit:10;}
</style>
<g>
	<path d="M60,6c29.8,0,54,24.2,54,54s-24.2,54-54,54S6,89.8,6,60S30.2,6,60,6 M60,0C26.9,0,0,26.9,0,60s26.9,60,60,60s60-26.9,60-60
		S93.1,0,60,0L60,0z"/>
</g>
<polyline class="st0" points="59.9,28 59.3,27.4 26.4,60.3 59.3,93.3 59.9,92.7 "/>
<line class="st0" x1="92.9" y1="60.3" x2="28.1" y2="60.3"/>
</svg>


<svg aria-hidden="true" focusable="false" data-prefix="far" data-icon="arrow-circle-right" 
class="svg-inline--fa fa-arrow-circle-right fa-w-16" role="img" xmlns="http://www.w3.org/2000/svg" viewBox="0 0 512 512">
<path fill="currentColor" d="M8 256c0 137 111 248 248 248s248-111 248-248S393 8 256 8 8 119 8 256zm448 0c0 110.5-89.5 200-200 200S56 366.5 56 256 145.5 56 256 56s200 89.5 200 200zM266.9 126.1l121.4 121.4c4.7 4.7 4.7 12.3 0 17L266.9 385.9c-4.7 4.7-12.3 4.7-17 0l-19.6-19.6c-4.8-4.8-4.7-12.5.2-17.2l70.3-67.1H140c-6.6 0-12-5.4-12-12v-28c0-6.6 5.4-12 12-12h160.8l-70.3-67.1c-4.9-4.7-5-12.4-.2-17.2l19.6-19.6c4.7-4.7 12.3-4.7 17 0z"></path></svg>